# xmcd CD database file
#
# Track frame offsets:
#	150
#	20635
#	41587
#	62970
#	86535
#	104472
#	128954
#	147999
#	162539
#	191669
#	214182
#	247457
#	267187
#	288542
#	306347
#
# Disc length: 4408 seconds
#
# Revision: 0
# Processed by: cddbd v1.5.2PL0 Copyright (c) Steve Scherf et al.
# Submitted via: CDex 1.51
#
DISCID=f311360f
DTITLE=Eric Clapton - Chronicles
DYEAR=1990
DGENRE=Blues
TTITLE0=Tears In Heaven
TTITLE1=Layla
TTITLE2=Pretending
TTITLE3=Bad Love
TTITLE4=Before You Accuse Me
TTITLE5=Wonderful Tonight
TTITLE6=It's The Way That You Use It
TTITLE7=Forever Man
TTITLE8=Running On Faith
TTITLE9=She's Waiting
TTITLE10=River Of Tears
TTITLE11=(I) Get Lost
TTITLE12=Blue Eyes Blue
TTITLE13=Change The World
TTITLE14=My Father's Eyes
EXTD=YEAR: 1990
EXTT0=
EXTT1=
EXTT2=
EXTT3=
EXTT4=
EXTT5=
EXTT6=
EXTT7=
EXTT8=
EXTT9=
EXTT10=
EXTT11=
EXTT12=
EXTT13=
EXTT14=
PLAYORDER=
